<svg xmlns="http://www.w3.org/2000/svg" viewBox="0 0 24 24" id="adobe-photoshop"><path fill="#001D25" d="M0 2v20a2 2 0 0 0 2 2h20a2 2 0 0 0 2-2V2a2 2 0 0 0-2-2H2a2 2 0 0 0-2 2z"></path><path fill="#00C8FE" d="M22 1c.551 0 1 .449 1 1v20c0 .551-.449 1-1 1H2c-.551 0-1-.449-1-1V2c0-.551.449-1 1-1h20zm0-1H2a2 2 0 0 0-2 2v20a2 2 0 0 0 2 2h20a2 2 0 0 0 2-2V2a2 2 0 0 0-2-2z"></path><path fill="#00C8FE" d="M15.555 16.502c-.876 0-1.62-.183-2.05-.43-.065-.033-.08-.082-.08-.165V14.44c0-.1.048-.133.114-.084a3.684 3.684 0 0 0 2.012.594c.792 0 1.122-.33 1.122-.776 0-.363-.23-.677-1.237-1.205-1.42-.68-2.014-1.37-2.014-2.527 0-1.287 1.006-2.36 2.755-2.36.86 0 1.464.132 1.794.28.082.05.1.132.1.198v1.37c0 .083-.05.133-.15.1-.444-.264-1.1-.43-1.743-.43l.004.004c-.792 0-1.056.396-1.056.726 0 .363.18.61 1.237 1.155 1.568.76 2.062 1.485 2.062 2.557 0 1.6-1.22 2.46-2.87 2.46zM8.602 5.314c-.99 0-1.934.017-2.578.05-.084 0-.224.049-.224.116h.001v10.758c0 .083.032.113.115.113H7.46c.082 0 .115-.033.115-.116v-3.842c.265 0 .395.017.775.017 2.26 0 4.102-1.09 4.102-3.63 0-1.946-1.078-3.466-3.85-3.466zm-.217 5.494c-.397 0-.579 0-.809-.016V6.931a12.2 12.2 0 0 1 .957-.033c1.336 0 2.122.644 2.122 1.914 0 1.584-1.1 1.996-2.27 1.996z"></path></svg>